
<svg width="120" height="36" viewBox="0 0 120 36" fill="none" xmlns="http://www.w3.org/2000/svg">
  <path d="M108.051 0.432617H104.138C103.717 0.432617 103.373 0.776617 103.373 1.19762V10.5806C103.373 11.0016 103.029 11.3456 102.608 11.3456C102.187 11.3456 101.843 11.0016 101.843 10.5806V1.19762C101.843 0.776617 101.499 0.432617 101.078 0.432617H97.1653C96.7453 0.432617 96.4003 0.776617 96.4003 1.19762V17.4436C96.4003 17.8646 96.7453 18.2086 97.1653 18.2086H101.078C101.499 18.2086 101.843 17.8646 101.843 17.4436V14.7896C101.843 14.3686 102.187 14.0246 102.608 14.0246C103.029 14.0246 103.373 14.3686 103.373 14.7896V17.4436C103.373 17.8646 103.717 18.2086 104.138 18.2086H108.051C108.471 18.2086 108.815 17.8646 108.815 17.4436V1.19762C108.815 0.776617 108.471 0.432617 108.051 0.432617Z" fill="#F27997"/>
  <path d="M117.705 7.57861H115.051C114.63 7.57861 114.286 7.92261 114.286 8.34361V11.3836C114.286 11.8046 114.63 12.1486 115.051 12.1486H117.705C118.126 12.1486 118.47 11.8046 118.47 11.3836V8.34361C118.47 7.92261 118.126 7.57861 117.705 7.57861Z" fill="#F27997"/>
  <path d="M63.9626 0.432617H60.0496C59.6296 0.432617 59.2846 0.776617 59.2846 1.19762V10.5806C59.2846 11.0016 58.9406 11.3456 58.5196 11.3456C58.0986 11.3456 57.7546 11.0016 57.7546 10.5806V1.19762C57.7546 0.776617 57.4096 0.432617 56.9896 0.432617H53.0766C52.6556 0.432617 52.3116 0.776617 52.3116 1.19762V17.4436C52.3116 17.8646 52.6556 18.2086 53.0766 18.2086H56.9896C57.4096 18.2086 57.7546 17.8646 57.7546 17.4436V14.7896C57.7546 14.3686 58.0986 14.0246 58.5196 14.0246C58.9406 14.0246 59.2846 14.3686 59.2846 14.7896V17.4436C59.2846 17.8646 59.6296 18.2086 60.0496 18.2086H63.9626C64.3836 18.2086 64.7276 17.8646 64.7276 17.4436V1.19762C64.7276 0.776617 64.3836 0.432617 63.9626 0.432617Z" fill="#F27997"/>
  <path d="M19.881 7.57861C19.46 7.57861 19.116 7.92261 19.116 8.34361V17.4436C19.116 17.8646 18.772 18.2086 18.351 18.2086H14.438C14.017 18.2086 13.673 17.8646 13.673 17.4436V8.34361C13.673 7.92261 13.329 7.57861 12.908 7.57861H10.254C9.83301 7.57861 9.48901 7.92261 9.48901 8.34361V17.4436C9.48901 17.8646 9.14401 18.2086 8.72401 18.2086H4.81001C4.38901 18.2086 4.04501 17.8646 4.04501 17.4436V1.19761C4.04501 0.776614 4.38901 0.432617 4.81001 0.432617H8.72401C9.14401 0.432617 9.48901 0.776614 9.48901 1.19761V3.59761C9.48901 4.01861 9.83301 4.36361 10.254 4.36361H12.908C13.329 4.36361 13.673 4.01861 13.673 3.59761V1.19761C13.673 0.776614 14.017 0.432617 14.438 0.432617H18.351C18.772 0.432617 19.116 0.776614 19.116 1.19761V3.59761C19.116 4.01861 19.46 4.36361 19.881 4.36361H22.535C22.956 4.36361 23.3 4.01861 23.3 3.59761V1.19761C23.3 0.776614 23.645 0.432617 24.066 0.432617H27.979C28.399 0.432617 28.744 0.776614 28.744 1.19761V17.4436C28.744 17.8646 28.399 18.2086 27.979 18.2086H24.066C23.645 18.2086 23.3 17.8646 23.3 17.4436V8.34361C23.3 7.92261 22.956 7.57861 22.535 7.57861H19.881Z" fill="#F27997"/>
  <path d="M88.252 13.5386H79.782C79.361 13.5386 79.017 13.8826 79.017 14.3036V17.4436C79.017 17.8646 78.673 18.2086 78.252 18.2086H74.339C73.918 18.2086 73.574 17.8646 73.574 17.4436V1.19762C73.574 0.776617 73.918 0.432617 74.339 0.432617H78.252C78.673 0.432617 79.017 0.776617 79.017 1.19762V10.3776C79.017 10.7986 79.361 11.1426 79.782 11.1426H88.252C88.673 11.1426 89.017 10.7986 89.017 10.3776V1.19762C89.017 0.776617 89.361 0.432617 89.782 0.432617H93.695C94.116 0.432617 94.46 0.776617 94.46 1.19762V17.4436C94.46 17.8646 94.116 18.2086 93.695 18.2086H89.782C89.361 18.2086 89.017 17.8646 89.017 17.4436V14.3036C89.017 13.8826 88.673 13.5386 88.252 13.5386Z" fill="#F27997"/>
  <path d="M43.85 7.57861H37.641C37.22 7.57861 36.876 7.92261 36.876 8.34361V17.4436C36.876 17.8646 36.532 18.2086 36.111 18.2086H32.198C31.777 18.2086 31.433 17.8646 31.433 17.4436V1.19761C31.433 0.776614 31.777 0.432617 32.198 0.432617H36.111C36.532 0.432617 36.876 0.776614 36.876 1.19761V4.36361C36.876 4.78461 37.22 5.12861 37.641 5.12861H43.85C44.27 5.12861 44.615 4.78461 44.615 4.36361V1.19761C44.615 0.776614 44.959 0.432617 45.38 0.432617H49.293C49.714 0.432617 50.058 0.776614 50.058 1.19761V17.4436C50.058 17.8646 49.714 18.2086 49.293 18.2086H45.38C44.959 18.2086 44.615 17.8646 44.615 17.4436V8.34361C44.615 7.92261 44.27 7.57861 43.85 7.57861Z" fill="#F27997"/>
  <path d="M72.3733 10.6656C72.7943 10.6656 73.1393 10.3216 73.1393 9.90062V8.38861C73.1393 6.11461 71.2903 4.26462 69.0153 4.26462H68.9373V4.23962C68.9373 2.23962 67.3163 0.618622 65.3153 0.618622C63.3153 0.618622 61.6943 2.23962 61.6943 4.23962V4.26462H61.6163C59.3413 4.26462 57.4923 6.11461 57.4923 8.38861V9.90062C57.4923 10.3216 57.8373 10.6656 58.2583 10.6656C58.5433 10.6656 58.7873 10.5016 58.9193 10.2586C59.5973 8.89461 61.0773 7.96862 62.7833 7.96862H67.8503C69.5563 7.96862 71.0353 8.89461 71.7133 10.2586C71.8453 10.5016 72.0883 10.6656 72.3733 10.6656Z" fill="#F27997"/>
  <path d="M65.3154 36.0001C60.0364 36.0001 55.7534 31.7171 55.7534 26.4381C55.7534 21.1591 60.0364 16.8761 65.3154 16.8761C70.5944 16.8761 74.8774 21.1591 74.8774 26.4381C74.8774 31.7171 70.5944 36.0001 65.3154 36.0001Z" fill="#F27997"/>
  <path d="M65.3154 18.2766C60.8084 18.2766 57.1534 21.9316 57.1534 26.4386C57.1534 30.9456 60.8084 34.6006 65.3154 34.6006C69.8224 34.6006 73.4774 30.9456 73.4774 26.4386C73.4774 21.9316 69.8224 18.2766 65.3154 18.2766ZM70.8084 26.4386C70.8084 29.4716 68.3484 31.9316 65.3154 31.9316C62.2824 31.9316 59.8224 29.4716 59.8224 26.4386C59.8224 23.4056 62.2824 20.9456 65.3154 20.9456C68.3484 20.9456 70.8084 23.4056 70.8084 26.4386Z" fill="white"/>
  <path d="M64.6744 29.2776H63.1094C62.5174 29.2776 62.0364 28.7966 62.0364 28.2046V26.2956C62.0364 25.7046 62.5174 25.2236 63.1094 25.2236H64.6744V23.6606C64.6744 22.9356 65.2614 22.3486 65.9864 22.3486C66.7114 22.3486 67.2994 22.9356 67.2994 23.6606V25.2236H68.8644C69.4564 25.2236 69.9374 25.7046 69.9374 26.2956V28.2046C69.9374 28.7966 69.4564 29.2776 68.8644 29.2776H67.2994V30.5876C67.2994 31.3116 66.7114 31.8986 65.9864 31.8986C65.2614 31.8986 64.6744 31.3116 64.6744 30.5876V29.2776Z" fill="#F27997"/>
  <path d="M117.705 0.432617H115.051C114.63 0.432617 114.286 0.776617 114.286 1.19762V4.23761C114.286 4.65861 114.63 5.00261 115.051 5.00261H117.705C118.126 5.00261 118.47 4.65861 118.47 4.23761V1.19762C118.47 0.776617 118.126 0.432617 117.705 0.432617Z" fill="#F27997"/>
  <path d="M117.705 14.7896H115.051C114.63 14.7896 114.286 15.1336 114.286 15.5546V17.4436C114.286 17.8646 114.63 18.2086 115.051 18.2086H117.705C118.126 18.2086 118.47 17.8646 118.47 17.4436V15.5546C118.47 15.1336 118.126 14.7896 117.705 14.7896Z" fill="#F27997"/>
</svg>
