
<svg width="200" height="100" viewBox="0 0 200 100" fill="none" xmlns="http://www.w3.org/2000/svg">
  <path d="M23.5941 14.8457H15.8144C15.1458 14.8457 14.6068 15.3838 14.6068 16.0524V38.6124C14.6068 41.9599 14.6068 45.2678 14.6068 45.2678C14.6068 45.9364 14.0678 46.4754 13.3992 46.4754C12.7306 46.4754 12.1916 45.9364 12.1916 45.2678C12.1916 45.2678 12.1916 41.9599 12.1916 38.6124V16.0524C12.1916 15.3838 11.6526 14.8457 10.984 14.8457H3.16946C2.50086 14.8457 1.96184 15.3838 1.96184 16.0524V69.4886C1.96184 70.1572 2.50086 70.6962 3.16946 70.6962H10.984C11.6526 70.6962 12.1916 70.1572 12.1916 69.4886V59.7933C12.1916 59.1247 12.7306 58.5857 13.3992 58.5857C14.0678 58.5857 14.6068 59.1247 14.6068 59.7933V69.4886C14.6068 70.1572 15.1458 70.6962 15.8144 70.6962H23.5941C24.2627 70.6962 24.8017 70.1572 24.8017 69.4886V16.0524C24.8017 15.3838 24.2627 14.8457 23.5941 14.8457Z" fill="#FF87B2"/>
  <path d="M46.2262 44.2592C46.2262 44.2592 46.2262 43.7269 46.2262 43.2125C46.2262 42.5439 45.6872 42.0049 45.0186 42.0049H33.3096C32.641 42.0049 32.102 42.5439 32.102 43.2125C32.102 43.7269 32.102 44.2592 32.102 44.2592C32.102 44.9278 32.641 45.4668 33.3096 45.4668H45.0186C45.6872 45.4668 46.2262 44.9278 46.2262 44.2592Z" fill="#FF87B2"/>
  <path d="M45.0186 36.8534H33.3096C32.641 36.8534 32.102 37.3924 32.102 38.061V39.9544C32.102 40.623 32.641 41.162 33.3096 41.162H45.0186C45.6872 41.162 46.2262 40.623 46.2262 39.9544V38.061C46.2262 37.3924 45.6872 36.8534 45.0186 36.8534Z" fill="#FF87B2"/>
  <path d="M45.0186 46.3218H33.3096C32.641 46.3218 32.102 46.8608 32.102 47.5294V49.4228C32.102 50.0914 32.641 50.6304 33.3096 50.6304H45.0186C45.6872 50.6304 46.2262 50.0914 46.2262 49.4228V47.5294C46.2262 46.8608 45.6872 46.3218 45.0186 46.3218Z" fill="#FF87B2"/>
  <path d="M45.0186 25.0488H33.3096C32.641 25.0488 32.102 25.5878 32.102 26.2564V28.1498C32.102 28.8184 32.641 29.3574 33.3096 29.3574H45.0186C45.6872 29.3574 46.2262 28.8184 46.2262 28.1498V26.2564C46.2262 25.5878 45.6872 25.0488 45.0186 25.0488Z" fill="#FF87B2"/>
  <path d="M45.0186 14.8457H33.3096C32.641 14.8457 32.102 15.3846 32.102 16.0532V18.8113C32.102 19.4799 32.641 20.0189 33.3096 20.0189H45.0186C45.6872 20.0189 46.2262 19.4799 46.2262 18.8113V16.0532C46.2262 15.3846 45.6872 14.8457 45.0186 14.8457Z" fill="#FF87B2"/>
  <path d="M45.0186 51.4854H33.3096C32.641 51.4854 32.102 52.0244 32.102 52.693V55.451C32.102 56.1196 32.641 56.6586 33.3096 56.6586H45.0186C45.6872 56.6586 46.2262 56.1196 46.2262 55.451V52.693C46.2262 52.0244 45.6872 51.4854 45.0186 51.4854Z" fill="#FF87B2"/>
  <path d="M45.0186 65.565H33.3096C32.641 65.565 32.102 66.104 32.102 66.7726V69.4886C32.102 70.1572 32.641 70.6962 33.3096 70.6962H45.0186C45.6872 70.6962 46.2262 70.1572 46.2262 69.4886V66.7726C46.2262 66.104 45.6872 65.565 45.0186 65.565Z" fill="#FF87B2"/>
  <path d="M59.9395 58.5857H52.1599C51.4913 58.5857 50.9523 59.1247 50.9523 59.7933V69.4886C50.9523 70.1572 51.4913 70.6962 52.1599 70.6962H59.9395C60.6081 70.6962 61.1471 70.1572 61.1471 69.4886V59.7933C61.1471 59.1247 60.6081 58.5857 59.9395 58.5857Z" fill="#FF87B2"/>
  <path d="M59.9395 14.8457H52.1599C51.4913 14.8457 50.9523 15.3838 50.9523 16.0524V26.6113C50.9523 27.2799 51.4913 27.8189 52.1599 27.8189H59.9395C60.6081 27.8189 61.1471 27.2799 61.1471 26.6113V16.0524C61.1471 15.3838 60.6081 14.8457 59.9395 14.8457Z" fill="#FF87B2"/>
  <path d="M59.9395 36.8534H52.1599C51.4913 36.8534 50.9523 37.3924 50.9523 38.061V47.8844C50.9523 48.553 51.4913 49.092 52.1599 49.092H59.9395C60.6081 49.092 61.1471 48.553 61.1471 47.8844V38.061C61.1471 37.3924 60.6081 36.8534 59.9395 36.8534Z" fill="#FF87B2"/>
  <path d="M59.9395 29.3574H52.1599C51.4913 29.3574 50.9523 29.8964 50.9523 30.565V35.0024C50.9523 35.671 51.4913 36.21 52.1599 36.21H59.9395C60.6081 36.21 61.1471 35.671 61.1471 35.0024V30.565C61.1471 29.8964 60.6081 29.3574 59.9395 29.3574Z" fill="#FF87B2"/>
  <path d="M59.9395 50.6304H52.1599C51.4913 50.6304 50.9523 51.1694 50.9523 51.838V57.3781C50.9523 58.0467 51.4913 58.5857 52.1599 58.5857H59.9395C60.6081 58.5857 61.1471 58.0467 61.1471 57.3781V51.838C61.1471 51.1694 60.6081 50.6304 59.9395 50.6304Z" fill="#FF87B2"/>
  <path d="M76.9888 14.8457H69.1748C68.5062 14.8457 67.9672 15.3838 67.9672 16.0524V35.0024C67.9672 35.671 67.4282 36.21 66.7596 36.21C66.091 36.21 65.552 35.671 65.552 35.0024V16.0524C65.552 15.3838 65.013 14.8457 64.3444 14.8457H56.5647C55.8961 14.8457 55.3571 15.3838 55.3571 16.0524V69.4886C55.3571 70.1572 55.8961 70.6962 56.5647 70.6962H64.3444C65.013 70.6962 65.552 70.1572 65.552 69.4886V59.7933C65.552 59.1247 66.091 58.5857 66.7596 58.5857C67.4282 58.5857 67.9672 59.1247 67.9672 59.7933V69.4886C67.9672 70.1572 68.5062 70.6962 69.1748 70.6962H76.9888C77.6574 70.6962 78.1964 70.1572 78.1964 69.4886V16.0524C78.1964 15.3838 77.6574 14.8457 76.9888 14.8457Z" fill="#FF87B2"/>
  <path d="M87.1931 42.0049H83.8441C83.1755 42.0049 82.6365 42.5439 82.6365 43.2125V50.6304C82.6365 51.2989 83.1755 51.838 83.8441 51.838H87.1931C87.8617 51.838 88.4007 51.2989 88.4007 50.6304V43.2125C88.4007 42.5439 87.8617 42.0049 87.1931 42.0049Z" fill="#FF87B2"/>
  <path d="M137.18 14.8457H129.4C128.731 14.8457 128.193 15.3838 128.193 16.0524V35.0023C128.193 35.6709 127.654 36.21 126.985 36.21C126.316 36.21 125.777 35.6709 125.777 35.0023V16.0524C125.777 15.3838 125.238 14.8457 124.57 14.8457H116.79C116.122 14.8457 115.583 15.3838 115.583 16.0524V69.4886C115.583 70.1572 116.122 70.6962 116.79 70.6962H124.57C125.238 70.6962 125.777 70.1572 125.777 69.4886V59.7933C125.777 59.1247 126.316 58.5857 126.985 58.5857C127.654 58.5857 128.193 59.1247 128.193 59.7933V69.4886C128.193 70.1572 128.731 70.6962 129.4 70.6962H137.18C137.849 70.6962 138.388 70.1572 138.388 69.4886V16.0524C138.388 15.3838 137.849 14.8457 137.18 14.8457Z" fill="#FF87B2"/>
  <path d="M175.278 14.8457H167.498C166.829 14.8457 166.29 15.3838 166.29 16.0524V35.0023C166.29 35.6709 165.751 36.21 165.083 36.21C164.414 36.21 163.875 35.6709 163.875 35.0023V16.0524C163.875 15.3838 163.336 14.8457 162.667 14.8457H154.887C154.219 14.8457 153.68 15.3838 153.68 16.0524V69.4886C153.68 70.1572 154.219 70.6962 154.887 70.6962H162.667C163.336 70.6962 163.875 70.1572 163.875 69.4886V59.7933C163.875 59.1247 164.414 58.5857 165.083 58.5857C165.751 58.5857 166.29 59.1247 166.29 59.7933V69.4886C166.29 70.1572 166.829 70.6962 167.498 70.6962H175.278C175.946 70.6962 176.485 70.1572 176.485 69.4886V16.0524C176.485 15.3838 175.946 14.8457 175.278 14.8457Z" fill="#FF87B2"/>
  <path d="M194.383 42.0049H191.034C190.365 42.0049 189.826 42.5439 189.826 43.2125V50.6304C189.826 51.2989 190.365 51.838 191.034 51.838H194.383C195.051 51.838 195.59 51.2989 195.59 50.6304V43.2125C195.59 42.5439 195.051 42.0049 194.383 42.0049Z" fill="#FF87B2"/>
  <path d="M194.383 14.8457H191.034C190.365 14.8457 189.826 15.3838 189.826 16.0524V29.3574C189.826 30.0259 190.365 30.565 191.034 30.565H194.383C195.051 30.565 195.59 30.0259 195.59 29.3574V16.0524C195.59 15.3838 195.051 14.8457 194.383 14.8457Z" fill="#FF87B2"/>
  <path d="M194.383 58.5857H191.034C190.365 58.5857 189.826 59.1247 189.826 59.7933V69.4886C189.826 70.1572 190.365 70.6962 191.034 70.6962H194.383C195.051 70.6962 195.59 70.1572 195.59 69.4886V59.7933C195.59 59.1247 195.051 58.5857 194.383 58.5857Z" fill="#FF87B2"/>
  <path d="M112.791 42.0049H97.3827C96.7141 42.0049 96.1751 42.5439 96.1751 43.2125V50.6304C96.1751 51.2989 96.7141 51.838 97.3827 51.838H112.791C113.46 51.838 113.999 51.2989 113.999 50.6304V43.2125C113.999 42.5439 113.46 42.0049 112.791 42.0049Z" fill="#FF87B2"/>
  <path d="M97.3827 14.8457C96.7141 14.8457 96.1751 15.3838 96.1751 16.0524V35.0023C96.1751 35.6709 96.7141 36.21 97.3827 36.21H112.791C113.46 36.21 113.999 35.6709 113.999 35.0023V16.0524C113.999 15.3838 113.46 14.8457 112.791 14.8457H97.3827Z" fill="#FF87B2"/>
  <path d="M150.481 36.8534H142.701C142.033 36.8534 141.494 37.3924 141.494 38.061V47.8844C141.494 48.553 142.033 49.092 142.701 49.092H150.481C151.15 49.092 151.689 48.553 151.689 47.8844V38.061C151.689 37.3924 151.15 36.8534 150.481 36.8534Z" fill="#FF87B2"/>
  <path d="M150.481 50.6304H142.701C142.033 50.6304 141.494 51.1694 141.494 51.838V57.3781C141.494 58.0467 142.033 58.5857 142.701 58.5857H150.481C151.15 58.5857 151.689 58.0467 151.689 57.3781V51.838C151.689 51.1694 151.15 50.6304 150.481 50.6304Z" fill="#FF87B2"/>
  <path d="M150.481 58.5857H142.701C142.033 58.5857 141.494 59.1247 141.494 59.7933V69.4886C141.494 70.1572 142.033 70.6962 142.701 70.6962H150.481C151.15 70.6962 151.689 70.1572 151.689 69.4886V59.7933C151.689 59.1247 151.15 58.5857 150.481 58.5857Z" fill="#FF87B2"/>
  <path d="M112.791 58.5857H97.3827C96.7141 58.5857 96.1751 59.1247 96.1751 59.7933V69.4886C96.1751 70.1572 96.7141 70.6962 97.3827 70.6962H112.791C113.46 70.6962 113.999 70.1572 113.999 69.4886V59.7933C113.999 59.1247 113.46 58.5857 112.791 58.5857Z" fill="#FF87B2"/>
  <path d="M150.481 14.8457H142.701C142.033 14.8457 141.494 15.3838 141.494 16.0524V26.6113C141.494 27.2799 142.033 27.8189 142.701 27.8189H150.481C151.15 27.8189 151.689 27.2799 151.689 26.6113V16.0524C151.689 15.3838 151.15 14.8457 150.481 14.8457Z" fill="#FF87B2"/>
  <path d="M87.1931 14.8457H83.8441C83.1755 14.8457 82.6365 15.3838 82.6365 16.0524V29.3574C82.6365 30.0259 83.1755 30.565 83.8441 30.565H87.1931C87.8617 30.565 88.4007 30.0259 88.4007 29.3574V16.0524C88.4007 15.3838 87.8617 14.8457 87.1931 14.8457Z" fill="#FF87B2"/>
  <path d="M87.1931 58.5857H83.8441C83.1755 58.5857 82.6365 59.1247 82.6365 59.7933V69.4886C82.6365 70.1572 83.1755 70.6962 83.8441 70.6962H87.1931C87.8617 70.6962 88.4007 70.1572 88.4007 69.4886V59.7933C88.4007 59.1247 87.8617 58.5857 87.1931 58.5857Z" fill="#FF87B2"/>
  <path d="M150.481 29.3574H142.701C142.033 29.3574 141.494 29.8964 141.494 30.565V35.0024C141.494 35.671 142.033 36.21 142.701 36.21H150.481C151.15 36.21 151.689 35.671 151.689 35.0024V30.565C151.689 29.8964 151.15 29.3574 150.481 29.3574Z" fill="#FF87B2"/>
  <path d="M98.538 74.2227C98.538 57.5332 111.96 44.1113 128.65 44.1113C145.339 44.1113 158.761 57.5332 158.761 74.2227C158.761 90.9122 145.339 104.334 128.65 104.334C111.96 104.334 98.538 90.9122 98.538 74.2227Z" fill="#77C4C3"/>
  <path d="M133.85 61.8926C138.43 66.2986 141.172 72.0951 141.172 78.4855C141.172 79.8237 141.043 81.1383 140.806 82.4293C154.095 76.1093 166.784 61.6172 173.45 55.5461C176.794 53.1348 178.305 52.4427 182.683 58.6309C182.683 65.2977 177.015 71.3687 173.838 74.4141C169.46 78.331 162.794 84.0138 154.095 87.3219C150.751 93.3929 144.085 97.6492 136.033 97.6492C125.044 97.6492 116.068 88.7057 116.068 77.6653C116.068 68.0449 123.388 60.2082 132.844 60.2082C133.181 60.2082 133.518 60.2145 133.85 60.2356V61.8926Z" fill="#77C4C3"/>
</svg>
